<svg width="49" height="49" viewBox="0 0 49 49" fill="none" xmlns="http://www.w3.org/2000/svg">
<path d="M24.5147 4.46137e-06C10.9837 -0.0080734 0.00808257 10.9544 4.46164e-06 24.4853C-0.00807365 38.0163 10.9544 48.9919 24.4853 49C30.986 49.0106 37.223 46.4308 41.8168 41.8314C46.4123 37.2398 48.9961 31.0109 49 24.5146C49.0081 10.9837 38.0456 0.00808257 24.5147 4.46137e-06ZM24.5154 46.549C12.338 46.5572 2.45964 36.6924 2.45126 24.5149C2.44303 12.3377 12.308 2.45919 24.4853 2.45096C30.336 2.44049 35.9495 4.7619 40.0839 8.90147C44.2197 13.0334 46.5454 18.6387 46.5493 24.485C46.5577 36.6623 36.6927 46.5406 24.5154 46.549ZM26.2181 24.5L34.0162 16.7019C34.4832 16.2255 34.4832 15.463 34.0162 14.9865C33.5425 14.5032 32.7667 14.4954 32.2834 14.969L24.4853 22.7671L16.6873 14.9692C16.2108 14.5023 15.4483 14.5023 14.9719 14.9692C14.4885 15.4428 14.4808 16.2186 14.9544 16.7019L22.7524 24.5L14.9544 32.298C14.7246 32.5278 14.5956 32.8394 14.5955 33.1643C14.5955 33.8411 15.1441 34.3898 15.8208 34.39C16.1459 34.3904 16.4578 34.2612 16.6873 34.0309L24.4853 26.2329L32.2834 34.0309C32.5129 34.2612 32.8248 34.3904 33.1499 34.39C33.4748 34.3898 33.7862 34.2609 34.016 34.0312C34.4947 33.5527 34.4947 32.7767 34.0162 32.298L26.2181 24.5Z" fill="#D85B53"/>
</svg>
