<svg width="53" height="23" viewBox="0 0 53 23" fill="none" xmlns="http://www.w3.org/2000/svg">
<path fill-rule="evenodd" clip-rule="evenodd" d="M20.7907 17.6284H32.2093C32.969 19.4728 34.7176 21.0417 37.0922 22.0035C39.527 22.9898 42.4207 23.2571 45.1365 22.7465C45.1385 22.7461 45.1406 22.7458 45.1426 22.7454C47.8584 22.2348 50.1739 20.9883 51.5797 19.2799C52.9855 17.5716 53.3664 15.5414 52.6387 13.636C51.6588 11.0701 50.5163 8.07863 49.5364 5.51277C48.8087 3.60737 47.032 1.98279 44.597 0.996486C42.1621 0.0101838 39.2685 -0.257097 36.5527 0.253454C36.5506 0.253813 36.5486 0.254212 36.5466 0.254612C34.9841 0.548301 33.5541 1.08566 32.3538 1.81443C32.3545 1.81395 20.6455 1.81395 20.6455 1.81395C19.4465 1.0859 18.0163 0.548381 16.4534 0.254572C16.4514 0.254212 16.4494 0.253813 16.4474 0.253454C13.7316 -0.257097 10.8379 0.0101838 8.40301 0.996486C5.96806 1.98279 4.19134 3.60737 3.46364 5.51277C2.48369 8.07863 1.34121 11.0701 0.361251 13.636C-0.366443 15.5414 0.0145155 17.5716 1.4203 19.2799C2.82615 20.9883 5.14163 22.2348 7.85742 22.7454C7.85947 22.7458 7.86147 22.7461 7.86352 22.7465C10.5793 23.2571 13.4729 22.9898 15.9079 22.0035C18.2824 21.0417 20.031 19.4728 20.7907 17.6284ZM35.2994 16.0787C34.8945 15.1038 33.5987 15.1313 33.5721 15.1314C26.4437 15.147 19.4279 15.1314 19.4279 15.1314C18.5058 15.1469 17.8904 15.5756 17.7006 16.0787C17.5798 16.3991 17.5092 16.5793 17.4164 16.823C17.2668 17.216 17.2663 17.2159 17.4095 16.841C16.9261 18.1067 15.7458 19.1858 14.1284 19.841C12.5109 20.4962 10.5887 20.6737 8.78465 20.3346L8.77856 20.3335C6.9745 19.9943 5.43637 19.1663 4.50254 18.0314C3.56871 16.8966 3.31564 15.548 3.79905 14.2823C4.77895 11.7164 5.92142 8.72489 6.90138 6.15904C7.38478 4.89331 8.56502 3.81416 10.1825 3.15894C11.8 2.50377 13.7222 2.32622 15.5262 2.66537L15.5323 2.66653C16.7367 2.89294 17.8225 3.33725 18.6892 3.94528C19.0229 4.17944 19.4755 4.31097 19.9475 4.31097H33.0525C33.5245 4.31097 33.9771 4.17944 34.3108 3.94528C35.1775 3.33725 36.2633 2.89294 37.4677 2.66653L37.4738 2.66537C39.2779 2.32622 41.2001 2.50377 42.8175 3.15894C44.435 3.81416 45.6153 4.89331 46.0987 6.15904C47.0786 8.72489 48.2211 11.7164 49.201 14.2823C49.6844 15.548 49.4313 16.8966 48.4975 18.0314C47.5636 19.1663 46.0255 19.9943 44.2214 20.3335L44.2153 20.3346C42.4113 20.6737 40.4891 20.4962 38.8716 19.841C37.2701 19.1923 36.0972 18.1279 35.605 16.8783L35.2994 16.0787ZM20.7801 17.6284H20.7793L20.7745 17.6376L20.7372 17.6973C20.7525 17.6748 20.7669 17.6518 20.7801 17.6284ZM12.2639 8.31442H10.4971C9.51502 8.31442 8.71763 8.87388 8.71763 9.56293C8.71763 10.252 9.51502 10.8114 10.4971 10.8114H12.2639V12.051C12.2639 12.7401 13.0612 13.2995 14.0434 13.2995C15.0255 13.2995 15.8229 12.7401 15.8229 12.051V10.8114H17.5896C18.5718 10.8114 19.3692 10.252 19.3692 9.56293C19.3692 8.87388 18.5718 8.31442 17.5896 8.31442H15.8229V7.07486C15.8229 6.38581 15.0255 5.82636 14.0434 5.82636C13.0612 5.82636 12.2639 6.38581 12.2639 7.07486V8.31442Z" fill="#FFC700"/>
<path fill-rule="evenodd" clip-rule="evenodd" d="M36.5551 11.7623C36.5551 11.0792 37.4265 10.5246 38.5 10.5246C39.5735 10.5246 40.4449 11.0792 40.4449 11.7623C40.4449 12.4454 39.5735 13 38.5 13C37.4265 13 36.5551 12.4454 36.5551 11.7623ZM42.055 8.26232C43.1285 8.26232 44 8.81689 44 9.5C44 10.1831 43.1285 10.7377 42.055 10.7377C40.9816 10.7377 40.1101 10.1831 40.1101 9.5C40.1101 8.81689 40.9816 8.26232 42.055 8.26232ZM34.945 8.26232C36.0184 8.26232 36.8899 8.81689 36.8899 9.5C36.8899 10.1831 36.0184 10.7377 34.945 10.7377C33.8715 10.7377 33 10.1831 33 9.5C33 8.81689 33.8715 8.26232 34.945 8.26232ZM36.5551 7.23772C36.5551 6.55461 37.4265 6 38.5 6C39.5735 6 40.4449 6.55461 40.4449 7.23772C40.4449 7.9208 39.5735 8.4754 38.5 8.4754C37.4265 8.4754 36.5551 7.9208 36.5551 7.23772Z" fill="#FFC700"/>
</svg>
