<svg width="78" height="78" viewBox="0 0 78 78" fill="none" xmlns="http://www.w3.org/2000/svg">
<path d="M42.081 40.9175L45.2985 30.849L46.696 21.5898V16.9065L45.2985 15.8828H44.4958L32.864 19.7048V24.388L34.4825 27.5113L34.9115 41.6195L36.9785 65.9555H41.0995L44.5445 43.4493L42.081 40.9175Z" fill="#D8A353"/>
<path d="M30.719 29.614L24.4822 33.0948L24.1345 46.7318L20.8195 48.4803L16.6595 65.9555H33.15L31.083 41.6195L30.719 29.614Z" fill="#8526FE"/>
<path d="M55.8285 48.4803L56.1633 55.6335L53.3423 56.342L50.3035 65.9555H62.9038V47.346L55.8285 48.4803Z" fill="#AD59D4"/>
<path d="M52.3347 55.6335L52 48.4802L58.461 47.4467L55.081 33.3547L48.8052 31.8532L45.9095 40.9175L48.373 43.4492L44.9247 65.9555H46.475L49.5137 56.342L52.3347 55.6335Z" fill="#C6B8A4"/>
<path d="M41.0995 67.5188H33.15C32.758 67.5194 32.3802 67.3727 32.0912 67.1079C31.8023 66.843 31.6234 66.4793 31.59 66.0888L29.5263 41.7528L29.1005 27.9143L27.6478 25.1095C27.5299 24.8828 27.4696 24.6305 27.4723 24.375V19.7048C27.4718 19.3753 27.5756 19.0542 27.7688 18.7874C27.9621 18.5206 28.2348 18.3218 28.548 18.2195L40.1798 14.3943C40.337 14.3423 40.5016 14.316 40.6673 14.3163H45.2985C45.6303 14.3173 45.9533 14.4231 46.2215 14.6185L47.6223 15.6423C47.822 15.7873 47.985 15.9773 48.0979 16.1969C48.2108 16.4165 48.2705 16.6596 48.2723 16.9065V21.5898C48.2722 21.6682 48.2657 21.7464 48.2528 21.8238L46.8553 31.083C46.8427 31.1647 46.8231 31.2452 46.7968 31.3235L43.8717 40.4983L45.6788 42.3573C45.8481 42.5305 45.9747 42.7409 46.0486 42.9716C46.1225 43.2023 46.1416 43.4471 46.1045 43.6865L42.6563 66.1928C42.5993 66.5639 42.4106 66.9021 42.1248 67.1456C41.8389 67.3891 41.475 67.5215 41.0995 67.5188ZM34.5995 64.389H39.767L42.8935 43.9823L40.9728 42.0095C40.7753 41.8062 40.6368 41.5531 40.5721 41.2771C40.5074 41.0012 40.519 40.7129 40.6055 40.443L43.7808 30.4915L45.1458 21.4728V17.6995L44.798 17.446H40.9175L30.602 20.839V24.0078L32.0418 26.7898C32.1513 26.9975 32.2114 27.2277 32.2173 27.4625L32.6495 41.5708L34.5995 64.389Z" fill="#414140"/>
<path d="M44.5445 45.0125C44.3356 45.0129 44.1287 44.9713 43.9362 44.8904C43.7436 44.8095 43.5692 44.6907 43.4232 44.5413L37.7227 38.6912C37.4408 38.392 37.2877 37.9939 37.2967 37.5828C37.3057 37.1717 37.4759 36.7806 37.7707 36.4939C38.0655 36.2073 38.4612 36.048 38.8723 36.0505C39.2835 36.053 39.6772 36.217 39.9685 36.5072L45.6657 42.3573C45.8808 42.5775 46.026 42.8563 46.0832 43.1588C46.1404 43.4612 46.107 43.7738 45.9873 44.0574C45.8675 44.3409 45.6667 44.5828 45.4101 44.7527C45.1534 44.9227 44.8523 45.013 44.5445 45.0125ZM33.15 67.5188H12.831C12.5946 67.52 12.3611 67.4674 12.1481 67.365C11.935 67.2625 11.7482 67.1129 11.6016 66.9275C11.455 66.742 11.3525 66.5257 11.302 66.2947C11.2515 66.0638 11.2542 65.8245 11.31 65.5948L15.47 48.1163C15.5203 47.9006 15.6159 47.6981 15.7503 47.5222C15.8848 47.3463 16.0551 47.2009 16.25 47.0958L18.7525 45.7762L19.0775 33.0557C19.0838 32.7839 19.1613 32.5184 19.3021 32.2857C19.4429 32.0531 19.6423 31.8614 19.8802 31.7297L29.9 26.1462C30.1332 26.0154 30.3961 25.9465 30.6635 25.9463C30.931 25.946 31.194 26.0144 31.4274 26.1448C31.6609 26.2752 31.857 26.4634 31.997 26.6912C32.137 26.9191 32.2162 27.179 32.227 27.4462L32.6592 41.5545L34.7197 65.806C34.7387 66.022 34.7124 66.2397 34.6426 66.445C34.5727 66.6503 34.4608 66.8388 34.314 66.9984C34.1672 67.1581 33.9888 67.2854 33.79 67.3721C33.5913 67.4589 33.3766 67.5033 33.1597 67.5025L33.15 67.5188ZM14.8135 64.389H31.447L29.5262 41.7527L29.1687 30.134L22.1975 34.0275L21.8725 46.774C21.8648 47.0517 21.7834 47.3224 21.6366 47.5582C21.4898 47.7941 21.283 47.9867 21.0372 48.1163L18.3527 49.5333L14.8135 64.389Z" fill="#414140"/>
<path d="M16.9942 50.05C16.6408 50.0571 16.2953 49.9442 16.0143 49.7297C15.7332 49.5152 15.5332 49.2118 15.4468 48.8689C15.3605 48.5261 15.3929 48.1641 15.5387 47.8421C15.6846 47.52 15.9353 47.2569 16.25 47.0957L23.1725 43.446C23.5374 43.2737 23.9548 43.2489 24.3375 43.3767C24.7203 43.5046 25.039 43.7752 25.2271 44.1322C25.4153 44.4892 25.4584 44.9051 25.3475 45.2931C25.2365 45.6811 24.9802 46.0114 24.6317 46.215L17.7092 49.8647C17.4888 49.9819 17.2438 50.0454 16.9942 50.05ZM62.9037 67.5187H46.475C46.2292 67.5189 45.9869 67.4612 45.7677 67.3502C45.5484 67.2392 45.3584 67.078 45.2131 66.8799C45.0678 66.6817 44.9712 66.452 44.9313 66.2095C44.8914 65.967 44.9092 65.7186 44.9832 65.4842L48.022 55.8707C48.1017 55.6164 48.2455 55.3868 48.4396 55.2041C48.6337 55.0214 48.8715 54.8917 49.1302 54.8275L50.713 54.4277L50.4367 48.5517C50.4169 48.1687 50.5383 47.7917 50.7779 47.4922C51.0175 47.1927 51.3587 46.9915 51.7367 46.9267L62.6405 45.1815C62.8641 45.1452 63.0929 45.158 63.3111 45.2189C63.5292 45.2798 63.7316 45.3874 63.9041 45.5342C64.0765 45.681 64.215 45.8636 64.31 46.0692C64.405 46.2749 64.4541 46.4987 64.454 46.7252V65.949C64.4557 66.3625 64.2936 66.7598 64.003 67.054C63.7125 67.3482 63.3172 67.5153 62.9037 67.5187ZM48.6037 64.389H61.334V48.568L53.6217 49.803L53.8915 55.5587C53.9086 55.9195 53.8005 56.2751 53.5855 56.5653C53.3705 56.8555 53.0618 57.0625 52.7118 57.1512L50.7357 57.6485L48.6037 64.389Z" fill="#414140"/>
<path d="M46.475 67.5187H41.0995C40.8739 67.5196 40.6507 67.4714 40.4454 67.3776C40.2402 67.2838 40.0577 67.1466 39.9106 66.9754C39.7636 66.8042 39.6554 66.6032 39.5936 66.3861C39.5317 66.1691 39.5177 65.9412 39.5525 65.7183L42.8805 43.9822L40.9598 42.0095C40.7623 41.8062 40.6238 41.5531 40.5591 41.2771C40.4945 41.0012 40.506 40.7129 40.5925 40.443L43.758 30.5272C43.8797 30.1518 44.138 29.8358 44.4818 29.642C44.8255 29.4481 45.2296 29.3906 45.6138 29.4807L55.445 31.85C55.7261 31.9168 55.9831 32.0603 56.1874 32.2646C56.3917 32.4689 56.5352 32.7259 56.602 33.007L59.982 47.0957C60.0332 47.3052 60.0404 47.5231 60.0032 47.7355C59.9659 47.9479 59.885 48.1503 59.7656 48.3299C59.6462 48.5094 59.4909 48.6623 59.3094 48.7788C59.1279 48.8953 58.9243 48.9729 58.7113 49.0068L53.6283 49.8193L53.898 55.575C53.9151 55.9358 53.807 56.2913 53.592 56.5815C53.377 56.8717 53.0684 57.0787 52.7183 57.1675L50.7423 57.6647L47.9668 66.4398C47.8643 66.7543 47.6647 67.0283 47.3966 67.2221C47.1285 67.416 46.8059 67.5199 46.475 67.5187ZM42.9228 64.389H45.3278L48.022 55.8707C48.1017 55.6164 48.2455 55.3868 48.4396 55.2041C48.6337 55.0214 48.8716 54.8917 49.1303 54.8275L50.713 54.4277L50.4368 48.5517C50.4169 48.1687 50.5383 47.7917 50.778 47.4922C51.0176 47.1927 51.3587 46.9915 51.7368 46.9267L56.5305 46.1597L53.768 34.6482L46.293 32.8575L43.8555 40.4917L45.6625 42.3507C45.8318 42.524 45.9585 42.7344 46.0324 42.9651C46.1063 43.1958 46.1254 43.4406 46.0883 43.68L42.9228 64.389Z" fill="#414140"/>
<path d="M49.5105 57.9085C49.128 57.9099 48.7583 57.7711 48.4713 57.5183C48.1843 57.2655 48 56.9163 47.9531 56.5367C47.9063 56.1572 48.0002 55.7736 48.2171 55.4586C48.434 55.1436 48.7589 54.9191 49.1302 54.8275L58.0807 52.572C58.4762 52.4904 58.8879 52.5646 59.23 52.7793C59.572 52.9939 59.818 53.3323 59.9165 53.7239C60.015 54.1156 59.9585 54.5301 59.7588 54.881C59.559 55.232 59.2315 55.4922 58.8445 55.6075L49.894 57.8598C49.7687 57.8919 49.6399 57.9083 49.5105 57.9085ZM35.425 23.3155H20.6537C20.251 23.2971 19.8709 23.1243 19.5924 22.8328C19.314 22.5413 19.1586 22.1537 19.1586 21.7506C19.1586 21.3475 19.314 20.9599 19.5924 20.6685C19.8709 20.377 20.251 20.2041 20.6537 20.1858H35.425C35.6365 20.1761 35.8477 20.2094 36.046 20.2837C36.2443 20.358 36.4254 20.4717 36.5785 20.618C36.7316 20.7643 36.8534 20.94 36.9367 21.1347C37.0199 21.3294 37.0628 21.5389 37.0628 21.7506C37.0628 21.9624 37.0199 22.1719 36.9367 22.3665C36.8534 22.5612 36.7316 22.737 36.5785 22.8832C36.4254 23.0295 36.2443 23.1432 36.046 23.2175C35.8477 23.2918 35.6365 23.3251 35.425 23.3155ZM15.5707 23.3155H12.831C12.4283 23.2971 12.0482 23.1243 11.7697 22.8328C11.4912 22.5413 11.3358 22.1537 11.3358 21.7506C11.3358 21.3475 11.4912 20.9599 11.7697 20.6685C12.0482 20.377 12.4283 20.2041 12.831 20.1858H15.5707C15.9734 20.2041 16.3535 20.377 16.632 20.6685C16.9105 20.9599 17.0659 21.3475 17.0659 21.7506C17.0659 22.1537 16.9105 22.5413 16.632 22.8328C16.3535 23.1243 15.9734 23.2971 15.5707 23.3155ZM37.869 59.696H25.35C25.1385 59.7056 24.9272 59.6723 24.729 59.598C24.5307 59.5237 24.3496 59.41 24.1965 59.2637C24.0434 59.1175 23.9216 58.9417 23.8383 58.747C23.7551 58.5524 23.7121 58.3428 23.7121 58.1311C23.7121 57.9194 23.7551 57.7099 23.8383 57.5152C23.9216 57.3205 24.0434 57.1448 24.1965 56.9985C24.3496 56.8522 24.5307 56.7385 24.729 56.6642C24.9272 56.5899 25.1385 56.5566 25.35 56.5663H37.869C38.2717 56.5846 38.6518 56.7575 38.9303 57.049C39.2087 57.3404 39.3641 57.728 39.3641 58.1311C39.3641 58.5342 39.2087 58.9218 38.9303 59.2133C38.6518 59.5048 38.2717 59.6776 37.869 59.696ZM20.6537 59.696H19.0905C18.879 59.7056 18.6677 59.6723 18.4695 59.598C18.2712 59.5237 18.0901 59.41 17.937 59.2637C17.7839 59.1175 17.6621 58.9417 17.5788 58.747C17.4956 58.5524 17.4526 58.3428 17.4526 58.1311C17.4526 57.9194 17.4956 57.7099 17.5788 57.5152C17.6621 57.3205 17.7839 57.1448 17.937 56.9985C18.0901 56.8522 18.2712 56.7385 18.4695 56.6642C18.6677 56.5899 18.879 56.5566 19.0905 56.5663H20.6537C20.8652 56.5566 21.0765 56.5899 21.2748 56.6642C21.473 56.7385 21.6542 56.8522 21.8072 56.9985C21.9603 57.1448 22.0822 57.3205 22.1654 57.5152C22.2486 57.7099 22.2916 57.9194 22.2916 58.1311C22.2916 58.3428 22.2486 58.5524 22.1654 58.747C22.0822 58.9417 21.9603 59.1175 21.8072 59.2637C21.6542 59.41 21.473 59.5237 21.2748 59.598C21.0765 59.6723 20.8652 59.7056 20.6537 59.696ZM60.6125 38.181H49.7802C49.3775 38.1626 48.9974 37.9898 48.7189 37.6983C48.4405 37.4068 48.2851 37.0192 48.2851 36.6161C48.2851 36.213 48.4405 35.8254 48.7189 35.534C48.9974 35.2425 49.3775 35.0696 49.7802 35.0513H60.6125C60.824 35.0416 61.0352 35.0749 61.2335 35.1492C61.4318 35.2235 61.6129 35.3372 61.766 35.4835C61.9191 35.6298 62.0409 35.8055 62.1241 36.0002C62.2074 36.1949 62.2503 36.4044 62.2503 36.6161C62.2503 36.8279 62.2074 37.0374 62.1241 37.232C62.0409 37.4267 61.9191 37.6025 61.766 37.7487C61.6129 37.895 61.4318 38.0087 61.2335 38.083C61.0352 38.1573 60.824 38.1906 60.6125 38.181ZM62.9037 29.0745H41.6942C41.2915 29.0561 40.9114 28.8833 40.6329 28.5918C40.3545 28.3003 40.1991 27.9127 40.1991 27.5096C40.1991 27.1065 40.3545 26.7189 40.6329 26.4275C40.9114 26.136 41.2915 25.9631 41.6942 25.9448H62.9037C63.1152 25.9351 63.3265 25.9684 63.5247 26.0427C63.723 26.117 63.9042 26.2307 64.0572 26.377C64.2103 26.5233 64.3322 26.699 64.4154 26.8937C64.4986 27.0884 64.5416 27.2979 64.5416 27.5096C64.5416 27.7214 64.4986 27.9309 64.4154 28.1255C64.3322 28.3202 64.2103 28.496 64.0572 28.6422C63.9042 28.7885 63.723 28.9022 63.5247 28.9765C63.3265 29.0508 63.1152 29.0841 62.9037 29.0745Z" fill="#414140"/>
<path d="M12.831 37.934C12.3997 37.934 11.9781 38.0619 11.6195 38.3015C11.2608 38.5411 10.9813 38.8817 10.8163 39.2802C10.6512 39.6787 10.608 40.1172 10.6922 40.5402C10.7763 40.9632 10.984 41.3518 11.289 41.6568C11.594 41.9618 11.9826 42.1695 12.4056 42.2536C12.8286 42.3377 13.2671 42.2946 13.6656 42.1295C14.064 41.9644 14.4046 41.6849 14.6442 41.3263C14.8839 40.9677 15.0118 40.5461 15.0118 40.1148C15.0122 39.8283 14.9561 39.5445 14.8466 39.2797C14.7372 39.0149 14.5766 38.7744 14.374 38.5718C14.1714 38.3692 13.9308 38.2086 13.6661 38.0991C13.4013 37.9897 13.1175 37.9336 12.831 37.934ZM52.3023 18.681C52.0829 18.6804 51.8684 18.7448 51.6857 18.8662C51.503 18.9876 51.3604 19.1604 51.2761 19.3629C51.1917 19.5653 51.1693 19.7883 51.2117 20.0035C51.2541 20.2187 51.3594 20.4164 51.5142 20.5717C51.6691 20.7271 51.8665 20.8329 52.0816 20.876C52.2967 20.919 52.5197 20.8972 52.7224 20.8135C52.9251 20.7297 53.0984 20.5876 53.2203 20.4053C53.3422 20.223 53.4073 20.0086 53.4073 19.7893C53.4077 19.6439 53.3794 19.4998 53.3241 19.3654C53.2687 19.231 53.1874 19.1088 53.0848 19.0058C52.9821 18.9028 52.8602 18.8212 52.7259 18.7654C52.5916 18.7097 52.4477 18.681 52.3023 18.681Z" fill="#8526FE"/>
<path d="M70.395 41.1905C70.1755 41.1899 69.9608 41.2544 69.7781 41.3759C69.5953 41.4974 69.4528 41.6705 69.3685 41.8731C69.2842 42.0758 69.262 42.2989 69.3046 42.5142C69.3473 42.7294 69.4529 42.9272 69.6081 43.0824C69.7633 43.2376 69.9611 43.3432 70.1763 43.3859C70.3916 43.4285 70.6147 43.4063 70.8174 43.322C71.02 43.2377 71.1931 43.0952 71.3146 42.9124C71.4361 42.7297 71.5006 42.515 71.5 42.2955C71.4991 42.0027 71.3825 41.7221 71.1754 41.5151C70.9684 41.308 70.6878 41.1914 70.395 41.1905Z" fill="#D8A353"/>
<path d="M68.1785 53.8947C67.9592 53.8947 67.7448 53.9598 67.5624 54.0817C67.3801 54.2037 67.2381 54.3769 67.1543 54.5796C67.0705 54.7823 67.0488 55.0053 67.0918 55.2204C67.1348 55.4355 67.2407 55.6329 67.396 55.7878C67.5513 55.9427 67.7491 56.048 67.9643 56.0903C68.1795 56.1327 68.4024 56.1103 68.6049 56.0259C68.8073 55.9416 68.9802 55.799 69.1016 55.6163C69.2229 55.4337 69.2874 55.2191 69.2867 54.9997C69.2859 54.7064 69.1687 54.4253 68.961 54.2182C68.7533 54.0111 68.4719 53.8947 68.1785 53.8947Z" fill="#C6B8A4"/>
<path d="M21.775 25.9513C21.5558 25.9513 21.3415 26.0163 21.1593 26.138C20.977 26.2598 20.835 26.4329 20.7511 26.6354C20.6672 26.8379 20.6453 27.0607 20.688 27.2757C20.7308 27.4907 20.8364 27.6882 20.9913 27.8432C21.1463 27.9982 21.3438 28.1037 21.5588 28.1465C21.7738 28.1892 21.9966 28.1673 22.1991 28.0834C22.4016 27.9995 22.5747 27.8575 22.6965 27.6752C22.8182 27.493 22.8832 27.2787 22.8832 27.0595C22.8832 26.7656 22.7665 26.4837 22.5586 26.2759C22.3508 26.068 22.0689 25.9513 21.775 25.9513Z" fill="#D8A353"/>
<path d="M26 10.4813C25.7805 10.4806 25.5658 10.5451 25.3831 10.6667C25.2003 10.7882 25.0578 10.9613 24.9735 11.1639C24.8892 11.3665 24.867 11.5896 24.9096 11.8049C24.9523 12.0202 25.0579 12.218 25.2131 12.3731C25.3683 12.5283 25.566 12.634 25.7813 12.6766C25.9966 12.7193 26.2197 12.697 26.4223 12.6128C26.625 12.5285 26.798 12.3859 26.9196 12.2032C27.0411 12.0204 27.1056 11.8057 27.105 11.5863C27.1041 11.2935 26.9874 11.0129 26.7804 10.8058C26.5733 10.5988 26.2928 10.4821 26 10.4813Z" fill="#8526FE"/>
<path d="M37.869 10.4813C37.6496 10.4806 37.4348 10.5451 37.2521 10.6667C37.0693 10.7882 36.9268 10.9613 36.8425 11.1639C36.7582 11.3665 36.736 11.5896 36.7787 11.8049C36.8213 12.0202 36.9269 12.218 37.0821 12.3731C37.2373 12.5283 37.4351 12.634 37.6504 12.6766C37.8656 12.7193 38.0887 12.697 38.2914 12.6128C38.494 12.5285 38.6671 12.3859 38.7886 12.2032C38.9101 12.0204 38.9747 11.8057 38.974 11.5863C38.974 11.2932 38.8576 11.0121 38.6504 10.8049C38.4431 10.5977 38.1621 10.4813 37.869 10.4813ZM7.60827 53.3C7.38894 53.2994 7.17435 53.3638 6.99167 53.4852C6.80899 53.6066 6.66644 53.7794 6.58206 53.9819C6.49768 54.1843 6.47527 54.4073 6.51767 54.6225C6.56006 54.8377 6.66535 55.0354 6.82021 55.1907C6.97508 55.3461 7.17254 55.4519 7.38761 55.495C7.60268 55.538 7.82567 55.5162 8.02837 55.4324C8.23107 55.3487 8.40434 55.2066 8.52626 55.0243C8.64818 54.842 8.71326 54.6276 8.71327 54.4082C8.71327 54.1149 8.59695 53.8335 8.38982 53.6257C8.18268 53.418 7.90163 53.3009 7.60827 53.3Z" fill="#D8A353"/>
<path d="M61.1357 31.096C60.9163 31.0954 60.7015 31.1599 60.5188 31.2814C60.336 31.403 60.1935 31.576 60.1092 31.7787C60.0249 31.9813 60.0027 32.2044 60.0454 32.4197C60.088 32.635 60.1936 32.8327 60.3488 32.9879C60.504 33.1431 60.7018 33.2487 60.9171 33.2914C61.1324 33.334 61.3555 33.3118 61.5581 33.2275C61.7607 33.1432 61.9338 33.0007 62.0553 32.8179C62.1768 32.6352 62.2414 32.4205 62.2407 32.201C62.2399 31.9082 62.1232 31.6277 61.9161 31.4206C61.7091 31.2136 61.4285 31.0969 61.1357 31.096Z" fill="#C6B8A4"/>
<path d="M41.0248 21.6905C40.8706 21.6911 40.7202 21.7374 40.5923 21.8235C40.4645 21.9096 40.365 22.0317 40.3065 22.1743C40.2479 22.3168 40.2329 22.4736 40.2634 22.6247C40.2939 22.7757 40.3684 22.9144 40.4776 23.0232C40.5868 23.1319 40.7258 23.2059 40.877 23.2357C41.0283 23.2656 41.1849 23.2499 41.3273 23.1908C41.4696 23.1317 41.5912 23.0317 41.6768 22.9035C41.7624 22.7753 41.808 22.6246 41.808 22.4705C41.808 22.3678 41.7877 22.2661 41.7483 22.1713C41.7089 22.0764 41.6512 21.9903 41.5784 21.9178C41.5056 21.8453 41.4193 21.7879 41.3243 21.7489C41.2292 21.7099 41.1275 21.6901 41.0248 21.6905ZM38.194 43.2672C38.0388 43.2666 37.887 43.3121 37.7577 43.3979C37.6284 43.4837 37.5275 43.606 37.4678 43.7493C37.4081 43.8925 37.3923 44.0503 37.4224 44.2025C37.4525 44.3547 37.5272 44.4946 37.6369 44.6043C37.7467 44.7141 37.8865 44.7887 38.0388 44.8188C38.191 44.849 38.3488 44.8332 38.492 44.7735C38.6353 44.7138 38.7576 44.6129 38.8434 44.4836C38.9292 44.3543 38.9747 44.2024 38.974 44.0472C38.974 43.8404 38.8918 43.642 38.7456 43.4957C38.5993 43.3494 38.4009 43.2672 38.194 43.2672ZM58.461 60.0307C58.306 60.0307 58.1544 60.0768 58.0255 60.163C57.8967 60.2492 57.7963 60.3717 57.7371 60.515C57.6779 60.6583 57.6626 60.816 57.6931 60.968C57.7236 61.12 57.7985 61.2596 57.9083 61.369C58.0182 61.4784 58.1581 61.5527 58.3102 61.5826C58.4624 61.6124 58.6199 61.5965 58.763 61.5367C58.9061 61.4769 59.0282 61.376 59.1138 61.2468C59.1995 61.1175 59.2449 60.9658 59.2443 60.8107C59.2443 60.708 59.224 60.6063 59.1846 60.5115C59.1452 60.4167 59.0874 60.3305 59.0147 60.258C58.9419 60.1856 58.8555 60.1282 58.7605 60.0892C58.6655 60.0502 58.5637 60.0303 58.461 60.0307ZM57.681 50.2125C57.5258 50.2119 57.374 50.2573 57.2447 50.3431C57.1153 50.429 57.0145 50.5513 56.9548 50.6945C56.8951 50.8378 56.8793 50.9955 56.9094 51.1477C56.9395 51.3 57.0142 51.4398 57.1239 51.5496C57.2337 51.6593 57.3735 51.734 57.5258 51.7641C57.678 51.7942 57.8358 51.7784 57.979 51.7187C58.1223 51.6591 58.2446 51.5582 58.3304 51.4289C58.4162 51.2996 58.4617 51.1477 58.461 50.9925C58.4615 50.8899 58.4416 50.7883 58.4025 50.6935C58.3635 50.5987 58.306 50.5125 58.2335 50.44C58.161 50.3675 58.0748 50.31 57.98 50.271C57.8852 50.2319 57.7836 50.2121 57.681 50.2125ZM48.5355 39.741C48.3814 39.7416 48.2309 39.7879 48.1031 39.874C47.9752 39.9601 47.8758 40.0822 47.8172 40.2247C47.7587 40.3673 47.7437 40.5241 47.7742 40.6751C47.8046 40.8262 47.8792 40.9649 47.9884 41.0737C48.0976 41.1824 48.2366 41.2564 48.3878 41.2862C48.539 41.3161 48.6957 41.3004 48.838 41.2413C48.9803 41.1822 49.102 41.0822 49.1875 40.954C49.2731 40.8258 49.3188 40.6751 49.3188 40.521C49.3188 40.4183 49.2985 40.3166 49.2591 40.2218C49.2197 40.1269 49.1619 40.0408 49.0892 39.9683C49.0164 39.8958 48.93 39.8384 48.835 39.7994C48.74 39.7604 48.6382 39.7406 48.5355 39.741ZM54.6878 44.0472C54.5329 44.0472 54.3814 44.0932 54.2526 44.1792C54.1238 44.2653 54.0234 44.3876 53.9641 44.5308C53.9049 44.6739 53.8893 44.8314 53.9196 44.9833C53.9498 45.1352 54.0244 45.2748 54.1339 45.3843C54.2435 45.4939 54.383 45.5685 54.535 45.5987C54.6869 45.6289 54.8444 45.6134 54.9875 45.5541C55.1306 45.4948 55.253 45.3945 55.339 45.2656C55.4251 45.1368 55.471 44.9854 55.471 44.8305C55.4715 44.7275 55.4515 44.6255 55.4123 44.5303C55.3731 44.435 55.3154 44.3485 55.2426 44.2757C55.1698 44.2029 55.0832 44.1452 54.988 44.106C54.8928 44.0668 54.7907 44.0468 54.6878 44.0472ZM48.75 50.7C48.595 50.6994 48.4432 50.7447 48.314 50.8304C48.1848 50.9161 48.0839 51.0382 48.0241 51.1812C47.9643 51.3243 47.9483 51.4819 47.9782 51.634C48.008 51.7862 48.0824 51.9261 48.1918 52.0359C48.3012 52.1458 48.4407 52.2207 48.5928 52.2512C48.7448 52.2817 48.9024 52.2664 49.0457 52.2072C49.1891 52.148 49.3116 52.0476 49.3978 51.9187C49.484 51.7899 49.53 51.6383 49.53 51.4832C49.53 51.2761 49.4479 51.0773 49.3018 50.9305C49.1556 50.7838 48.9572 50.7009 48.75 50.7ZM22.8703 51.4832C22.716 51.4832 22.5652 51.529 22.4369 51.6147C22.3087 51.7004 22.2087 51.8222 22.1496 51.9648C22.0906 52.1073 22.0752 52.2641 22.1053 52.4154C22.1354 52.5667 22.2096 52.7057 22.3187 52.8148C22.4278 52.9239 22.5668 52.9982 22.7181 53.0283C22.8694 53.0584 23.0262 53.0429 23.1688 52.9839C23.3113 52.9248 23.4331 52.8249 23.5188 52.6966C23.6045 52.5683 23.6503 52.4175 23.6503 52.2632C23.6503 52.0564 23.5681 51.858 23.4218 51.7117C23.2755 51.5654 23.0771 51.4832 22.8703 51.4832ZM29.5198 60.8107C29.3647 60.8101 29.213 60.8555 29.0837 60.9412C28.9545 61.0268 28.8536 61.1489 28.7938 61.292C28.734 61.4351 28.7181 61.5927 28.7479 61.7448C28.7778 61.8969 28.8521 62.0368 28.9615 62.1467C29.0709 62.2565 29.2105 62.3315 29.3625 62.3619C29.5145 62.3924 29.6722 62.3771 29.8155 62.3179C29.9588 62.2587 30.0813 62.1584 30.1675 62.0295C30.2537 61.9006 30.2998 61.749 30.2998 61.594C30.3002 61.4913 30.2803 61.3895 30.2413 61.2945C30.2023 61.1995 30.1449 61.1131 30.0725 61.0403C30 60.9676 29.9139 60.9098 29.819 60.8704C29.7242 60.831 29.6225 60.8107 29.5198 60.8107Z" fill="#5FE4D4"/>
<path d="M46.28 56.81C46.7108 56.81 47.06 56.4608 47.06 56.03C47.06 55.5992 46.7108 55.25 46.28 55.25C45.8492 55.25 45.5 55.5992 45.5 56.03C45.5 56.4608 45.8492 56.81 46.28 56.81Z" fill="#5FE4D4"/>
</svg>
