<svg width="63" height="63" viewBox="0 0 63 63" fill="none" xmlns="http://www.w3.org/2000/svg">
<g clip-path="url(#clip0_1_41)">
<mask id="mask0_1_41" style="mask-type:luminance" maskUnits="userSpaceOnUse" x="0" y="0" width="63" height="63">
<path d="M0 0H63V63H0V0Z" fill="white"/>
</mask>
<g mask="url(#mask0_1_41)">
<path d="M54.7105 1.6579H18.2368C16.478 1.6579 14.7913 2.35658 13.5476 3.60024C12.3039 4.8439 11.6053 6.53067 11.6053 8.28947V48.0789H8.28948C6.53067 48.0789 4.8439 48.7776 3.60024 50.0213C2.35658 51.265 1.6579 52.9517 1.6579 54.7105C1.6579 56.4693 2.35658 58.1561 3.60024 59.3998C4.8439 60.6434 6.53067 61.3421 8.28948 61.3421H48.0789C49.8377 61.3421 51.5245 60.6434 52.7682 59.3998C54.0118 58.1561 54.7105 56.4693 54.7105 54.7105V14.9211C56.4693 14.9211 58.1561 14.2224 59.3998 12.9787C60.6434 11.735 61.3421 10.0483 61.3421 8.28947C61.3421 6.53067 60.6434 4.8439 59.3998 3.60024C58.1561 2.35658 56.4693 1.6579 54.7105 1.6579Z" fill="#AD59D4"/>
<path d="M14.9211 18.2368H54.7106V14.9211H18.2369L14.9211 13.2632V18.2368Z" fill="#D8A353"/>
<path d="M18.2368 1.6579C16.478 1.6579 14.7913 2.35658 13.5476 3.60024C12.304 4.8439 11.6053 6.53067 11.6053 8.28947V48.9991C10.6016 48.4026 9.45695 48.085 8.28948 48.0789C6.97788 48.0789 5.69573 48.4679 4.60517 49.1966C3.51461 49.9253 2.66463 50.961 2.1627 52.1727C1.66077 53.3845 1.52944 54.7179 1.78532 56.0043C2.04121 57.2907 2.6728 58.4723 3.60025 59.3998C4.52769 60.3272 5.70932 60.9588 6.99572 61.2147C8.28212 61.4706 9.61551 61.3392 10.8273 60.8373C12.039 60.3354 13.0747 59.4854 13.8034 58.3948C14.5321 57.3043 14.9211 56.0221 14.9211 54.7105V14.0009C15.9247 14.5974 17.0694 14.915 18.2368 14.9211C19.9957 14.9211 21.6824 14.2224 22.9261 12.9787C24.1697 11.735 24.8684 10.0483 24.8684 8.28947C24.8684 6.53067 24.1697 4.8439 22.9261 3.60024C21.6824 2.35658 19.9957 1.6579 18.2368 1.6579Z" fill="#5FE4D4"/>
<path d="M21.5527 8.28946C21.5525 8.72501 21.4666 9.15627 21.2999 9.55862C21.1331 9.96097 20.8887 10.3265 20.5807 10.6344C20.2726 10.9423 19.9069 11.1865 19.5045 11.3531C19.102 11.5197 18.6707 11.6054 18.2352 11.6053C17.7997 11.6051 17.3684 11.5193 16.9661 11.3525C16.5637 11.1857 16.1981 10.9413 15.8902 10.6333C15.5823 10.3252 15.3381 9.95951 15.1716 9.55708C15.005 9.15465 14.9193 8.72335 14.9194 8.28781C14.9196 7.40818 15.2693 6.56468 15.8914 5.94284C16.5136 5.32101 17.3572 4.9718 18.2369 4.97202C19.1165 4.97224 19.96 5.32187 20.5818 5.94402C21.2037 6.56616 21.5529 7.40984 21.5527 8.28946ZM11.6053 54.7105C11.6052 55.1461 11.5193 55.5773 11.3525 55.9797C11.1857 56.382 10.9413 56.7476 10.6333 57.0555C10.3252 57.3634 9.95955 57.6076 9.55711 57.7742C9.15468 57.9407 8.72338 58.0264 8.28784 58.0263C7.85229 58.0262 7.42103 57.9403 7.01868 57.7735C6.61633 57.6068 6.25077 57.3624 5.94287 57.0543C5.63498 56.7463 5.39077 56.3806 5.22419 55.9781C5.05762 55.5757 4.97194 55.1444 4.97205 54.7089C4.97227 53.8292 5.3219 52.9857 5.94405 52.3639C6.56619 51.7421 7.40987 51.3928 8.28949 51.3931C9.16912 51.3933 10.0126 51.7429 10.6345 52.3651C11.2563 52.9872 11.6055 53.8309 11.6053 54.7105ZM51.3948 26.5263C51.3948 26.966 51.2201 27.3877 50.9092 27.6986C50.5983 28.0095 50.1766 28.1842 49.7369 28.1842H19.8948C19.4551 28.1842 19.0334 28.0095 18.7224 27.6986C18.4115 27.3877 18.2369 26.966 18.2369 26.5263C18.2369 26.0866 18.4115 25.6649 18.7224 25.354C19.0334 25.0431 19.4551 24.8684 19.8948 24.8684H49.7369C50.1766 24.8684 50.5983 25.0431 50.9092 25.354C51.2201 25.6649 51.3948 26.0866 51.3948 26.5263ZM51.3948 33.1579C51.3948 33.5976 51.2201 34.0193 50.9092 34.3302C50.5983 34.6411 50.1766 34.8158 49.7369 34.8158H19.8948C19.4551 34.8158 19.0334 34.6411 18.7224 34.3302C18.4115 34.0193 18.2369 33.5976 18.2369 33.1579C18.2369 32.7182 18.4115 32.2965 18.7224 31.9856C19.0334 31.6747 19.4551 31.5 19.8948 31.5H49.7369C50.1766 31.5 50.5983 31.6747 50.9092 31.9856C51.2201 32.2965 51.3948 32.7182 51.3948 33.1579ZM51.3948 39.7895C51.3948 40.2292 51.2201 40.6509 50.9092 40.9618C50.5983 41.2727 50.1766 41.4474 49.7369 41.4474H19.8948C19.4551 41.4474 19.0334 41.2727 18.7224 40.9618C18.4115 40.6509 18.2369 40.2292 18.2369 39.7895C18.2369 39.3498 18.4115 38.9281 18.7224 38.6172C19.0334 38.3062 19.4551 38.1316 19.8948 38.1316H49.7369C50.1766 38.1316 50.5983 38.3062 50.9092 38.6172C51.2201 38.9281 51.3948 39.3498 51.3948 39.7895ZM51.3948 46.421C51.3948 46.8607 51.2201 47.2824 50.9092 47.5934C50.5983 47.9043 50.1766 48.0789 49.7369 48.0789H19.8948C19.4551 48.0789 19.0334 47.9043 18.7224 47.5934C18.4115 47.2824 18.2369 46.8607 18.2369 46.421C18.2369 45.9813 18.4115 45.5597 18.7224 45.2487C19.0334 44.9378 19.4551 44.7631 19.8948 44.7631H49.7369C50.1766 44.7631 50.5983 44.9378 50.9092 45.2487C51.2201 45.5597 51.3948 45.9813 51.3948 46.421Z" fill="#C1944F"/>
</g>
</g>
<defs>
<clipPath id="clip0_1_41">
<rect width="63" height="63" fill="white"/>
</clipPath>
</defs>
</svg>
