<svg width="63" height="63" viewBox="0 0 63 63" fill="none" xmlns="http://www.w3.org/2000/svg">
<g clip-path="url(#clip0_1_50)">
<path d="M44.4033 7.40262C44.4028 8.29917 44.2286 9.18714 43.8902 10.0174L35.6903 30.2167L29.2501 46.0861L28.5893 47.7128L25.4836 55.3638L25.475 55.3601C24.8733 56.7225 24.008 57.9523 22.929 58.9789C21.85 60.0054 20.5785 60.8083 19.1879 61.3414C17.7972 61.8744 16.3149 62.1271 14.8262 62.0849C13.3375 62.0426 11.8718 61.7063 10.5137 61.0952C9.15551 60.4841 7.93165 59.6104 6.91259 58.5243C5.89352 57.4382 5.09939 56.1613 4.57592 54.767C4.05245 53.3727 3.80998 51.8887 3.86249 50.4003C3.91499 48.9119 4.26143 47.4486 4.88185 46.0947C7.32187 40.8394 13.4668 38.28 18.9412 40.234C20.4685 40.7761 21.861 41.6411 23.0239 42.77L24.8031 38.3858L25.4639 36.7591L31.9054 20.8923L40.0117 0.922974C41.3069 1.44129 42.4173 2.33539 43.1999 3.49019C43.9826 4.64498 44.4017 6.0076 44.4033 7.40262Z" fill="#5FE4D4"/>
<path d="M10.9026 61.2552C13.6221 62.3514 16.6609 62.3496 19.3791 61.25C22.0972 60.1503 24.2826 58.0388 25.475 55.36L25.4836 55.3637L28.5893 47.7127L24.8032 38.3857L23.0239 42.7699C21.861 41.641 20.4685 40.776 18.9412 40.2339C13.4669 38.2799 7.3219 40.8393 4.88188 46.0946C4.23856 47.4792 3.88436 48.9805 3.84091 50.5066C3.79747 52.0328 4.0657 53.5518 4.62921 54.9707C5.19272 56.3897 6.03968 57.6789 7.11831 58.7594C8.19694 59.8399 9.48459 60.6892 10.9026 61.2552Z" fill="#8526FE"/>
<path d="M15.1359 55.0876C17.5008 55.0876 19.4179 53.1795 19.4179 50.8258C19.4179 48.472 17.5008 46.5639 15.1359 46.5639C12.771 46.5639 10.8538 48.472 10.8538 50.8258C10.8538 53.1795 12.771 55.0876 15.1359 55.0876Z" fill="white"/>
<path d="M36.6127 27.9393L30.1724 43.8086L26.3863 34.4817L32.8278 18.6148L36.6127 27.9393Z" fill="#AD59D4"/>
<path d="M52.0974 61.2554C49.3779 62.3517 46.3391 62.3498 43.6209 61.2502C40.9027 60.1506 38.7174 58.039 37.525 55.3603L37.5164 55.3639L34.4107 47.7129L33.7511 46.0874L27.3096 30.2169L19.1098 10.0175C18.7635 9.1661 18.5892 8.25457 18.5969 7.33549C18.6047 6.4164 18.7943 5.50793 19.1548 4.66249C19.5154 3.81704 20.0397 3.05133 20.6977 2.40954C21.3556 1.76774 22.1341 1.26255 22.9882 0.923096L31.0946 20.8924L37.5361 36.7593L38.1968 38.3859L39.9761 42.7701C41.1389 41.6412 42.5315 40.7762 44.0588 40.2341C49.5331 38.2801 55.6781 40.8395 58.1181 46.0948C58.7614 47.4794 59.1156 48.9807 59.1591 50.5069C59.2025 52.033 58.9343 53.552 58.3708 54.971C57.8073 56.3899 56.9603 57.6791 55.8817 58.7596C54.8031 59.8402 53.5154 60.6894 52.0974 61.2554Z" fill="#5FE4D4"/>
<path d="M52.0972 61.2552C49.3776 62.3514 46.3388 62.3496 43.6206 61.25C40.9025 60.1503 38.7171 58.0388 37.5247 55.36L37.5161 55.3637L34.4104 47.7127L38.1966 38.3857L39.9758 42.7699C41.1387 41.641 42.5312 40.776 44.0585 40.2339C49.5329 38.2799 55.6778 40.8393 58.1178 46.0946C58.7612 47.4792 59.1154 48.9805 59.1588 50.5066C59.2022 52.0328 58.934 53.5518 58.3705 54.9707C57.807 56.3897 56.96 57.6789 55.8814 58.7594C54.8028 59.8399 53.5151 60.6892 52.0972 61.2552Z" fill="#8526FE"/>
<path d="M58.1179 46.0946C55.8272 41.1609 50.2712 38.6037 45.0701 39.9259C47.3811 40.491 49.4528 41.7759 50.9861 43.595C52.5194 45.4141 53.435 47.6733 53.6008 50.0467C53.7666 52.42 53.174 54.7846 51.9085 56.7992C50.643 58.8138 48.7701 60.3742 46.5601 61.2552C46.0836 61.4467 45.5948 61.6059 45.0969 61.7316C47.1598 62.2548 49.3286 62.1836 51.3527 61.5262C53.3768 60.8688 55.1736 59.6521 56.5354 58.0167C57.8973 56.3813 58.7685 54.3939 59.0485 52.2842C59.3286 50.1745 59.0059 48.0286 58.1179 46.0946ZM25.3352 46.0946C23.0645 41.1516 17.4885 38.6037 12.2875 39.9259C14.5985 40.491 16.6702 41.7758 18.2035 43.5949C19.7368 45.414 20.6525 47.6733 20.8183 50.0466C20.9841 52.4199 20.3915 54.7846 19.126 56.7992C17.8605 58.8138 15.9876 60.3742 13.7776 61.2552C13.3011 61.4467 12.8122 61.6059 12.3143 61.7316C14.6395 62.3159 17.09 62.1491 19.3147 61.2552C20.7336 60.6904 22.0223 59.8418 23.1017 58.7615C24.1812 57.6812 25.0287 56.3918 25.5924 54.9725C26.1561 53.5531 26.424 52.0336 26.3798 50.507C26.3356 48.9804 25.9801 47.479 25.3352 46.0946Z" fill="#D8A353"/>
<path d="M47.8639 55.0876C50.2288 55.0876 52.1459 53.1795 52.1459 50.8258C52.1459 48.472 50.2288 46.5639 47.8639 46.5639C45.499 46.5639 43.5818 48.472 43.5818 50.8258C43.5818 53.1795 45.499 55.0876 47.8639 55.0876Z" fill="white"/>
<path d="M51.8341 49.2292C51.4284 48.2398 50.668 47.4374 49.7017 46.9791C48.7355 46.5209 47.633 46.4398 46.6101 46.7516C47.4559 47.005 48.2018 47.5153 48.7445 48.2117C49.2872 48.9081 49.5998 49.7561 49.6389 50.6381C49.678 51.5202 49.4416 52.3925 48.9626 53.1341C48.4837 53.8758 47.7858 54.4501 46.9657 54.7773C46.8498 54.8239 46.7329 54.8639 46.6156 54.8998C47.386 55.1364 48.2077 55.1501 48.9857 54.9393C49.7636 54.7286 50.4661 54.3021 51.0118 53.709C51.5576 53.116 51.9244 52.3806 52.07 51.5879C52.2155 50.7951 52.1337 49.9774 51.8341 49.2292ZM19.207 49.2292C18.8013 48.2398 18.0409 47.4374 17.0746 46.9791C16.1084 46.5209 15.0059 46.4398 13.983 46.7516C14.8288 47.005 15.5747 47.5153 16.1174 48.2117C16.6601 48.9081 16.9727 49.7561 17.0118 50.6381C17.0508 51.5202 16.8145 52.3925 16.3355 53.1341C15.8565 53.8758 15.1587 54.4501 14.3386 54.7773C14.2227 54.8239 14.1058 54.8639 13.9884 54.8998C14.7589 55.1364 15.5806 55.1501 16.3586 54.9393C17.1365 54.7286 17.8389 54.3021 18.3847 53.709C18.9305 53.116 19.2973 52.3806 19.4428 51.5879C19.5883 50.7951 19.5066 49.9774 19.207 49.2292Z" fill="#E1E3E3"/>
<path d="M58.9551 45.706C57.6579 42.9516 55.3836 40.7775 52.5735 39.6057C49.7635 38.4339 46.6183 38.3481 43.7486 39.3649C42.5221 39.8 41.3731 40.4286 40.3453 41.2269L39.0542 38.0461C39.0503 38.0363 39.0465 38.0264 39.0423 38.0166L36.2813 31.2153L44.7455 10.3646C45.1375 9.40067 45.3348 8.3687 45.3261 7.32817C45.3174 6.28763 45.1028 5.2591 44.6948 4.30186C44.2868 3.34461 43.6934 2.47758 42.9487 1.75073C42.2041 1.02388 41.323 0.451578 40.3562 0.0668126C40.1296 -0.0242947 39.8761 -0.0218759 39.6513 0.073539C39.4265 0.168954 39.2487 0.349585 39.1568 0.575858L31.5004 19.4377L23.8436 0.575734C23.7519 0.349397 23.574 0.168703 23.3492 0.073276C23.1244 -0.0221506 22.8709 -0.0245192 22.6443 0.0666896C21.6784 0.452747 20.7982 1.0258 20.0544 1.75295C19.3106 2.4801 18.7177 3.34702 18.3098 4.30393C17.9019 5.26084 17.6871 6.2889 17.6776 7.32907C17.6681 8.36924 17.8642 9.40104 18.2546 10.3652L26.7186 31.2159L23.9564 38.0198C23.9535 38.0264 23.9509 38.0333 23.9482 38.0399L22.6542 41.2269C21.2011 40.1025 19.5141 39.3189 17.7176 38.9338C15.9212 38.5487 14.0612 38.572 12.275 39.002C10.4887 39.4319 8.82185 40.2575 7.39738 41.4179C5.97292 42.5782 4.82724 44.0436 4.04492 45.706C3.34882 47.2042 2.96548 48.8285 2.91834 50.4798C2.8712 52.1312 3.16124 53.7747 3.77073 55.3102C4.38023 56.8456 5.29639 58.2407 6.46322 59.4101C7.63006 60.5795 9.02308 61.4987 10.5572 62.1116C13.4783 63.2889 16.7408 63.2952 19.6665 62.1292C22.5921 60.9631 24.956 58.7145 26.2666 55.8507C26.2942 55.8063 26.3179 55.7596 26.3376 55.7112L29.4445 48.0601C29.4482 48.0508 29.4519 48.0414 29.4553 48.0318L31.4997 42.9938L33.5567 48.0612L33.5635 48.0777L36.6619 55.7107C36.682 55.7602 36.7064 55.8078 36.7348 55.8531C37.3966 57.3189 38.3414 58.6396 39.515 59.7394C40.6886 60.8392 42.0679 61.6963 43.5736 62.2616C45.0793 62.8269 46.6819 63.0893 48.2892 63.0336C49.8966 62.978 51.4772 62.6054 52.9402 61.9373C54.4032 61.2692 55.7199 60.3187 56.8146 59.1405C57.9093 57.9622 58.7606 56.5793 59.3194 55.0712C59.8783 53.563 60.1338 51.9594 60.0713 50.3522C60.0087 48.7451 59.6294 47.1662 58.9551 45.706ZM40.4953 2.18568C41.7478 2.91946 42.6939 4.07995 43.1604 5.45453C43.6269 6.82912 43.5824 8.32575 43.0353 9.67025L35.2853 28.7617L32.4964 21.8914L40.4953 2.18568ZM24.674 54.902C24.6582 54.9296 24.644 54.9579 24.6311 54.9869C23.5354 57.447 21.5278 59.3859 19.0312 60.3954C16.5345 61.4049 13.7435 61.4063 11.2459 60.3993C9.94421 59.8798 8.76218 59.1004 7.77201 58.1086C6.78185 57.1168 6.00436 55.9334 5.48707 54.6309C4.96979 53.3284 4.72358 51.9341 4.76349 50.5332C4.80341 49.1323 5.12861 47.7542 5.71921 46.4833C7.94882 41.6783 13.6207 39.3156 18.6313 41.1032C20.0345 41.6003 21.3137 42.3949 22.3814 43.4323C22.4898 43.5376 22.6225 43.6146 22.7677 43.6566C22.9129 43.6986 23.0662 43.7043 23.2141 43.6732C23.3621 43.642 23.5001 43.575 23.616 43.4781C23.732 43.3811 23.8224 43.2572 23.8792 43.1171L24.8035 40.8404L27.5934 47.7132L24.674 54.902ZM28.589 45.2585L25.7995 38.3868L27.7146 33.6694L30.5036 40.54L28.589 45.2585ZM32.3498 40.1806V40.1803L19.9646 9.67087C19.4204 8.32584 19.3775 6.83003 19.8439 5.45606C20.3102 4.08208 21.2547 2.92141 22.5053 2.18556L30.635 22.2128C30.6426 22.2332 30.6506 22.2534 30.6596 22.2733L37.2008 38.3869L34.4113 45.2586L32.3498 40.1806ZM57.5219 54.6081C57.0086 55.9171 56.2317 57.1067 55.2394 58.1029C54.2472 59.0991 53.0607 59.8807 51.7538 60.3993C49.2562 61.4062 46.4654 61.4047 43.9689 60.3952C41.4724 59.3857 39.465 57.4469 38.3693 54.9871C38.3559 54.9568 38.3409 54.9272 38.3243 54.8986L35.4071 47.7123L38.1966 40.8405L39.1207 43.1171C39.1775 43.2572 39.2679 43.3811 39.3839 43.4781C39.4998 43.5751 39.6379 43.6421 39.7858 43.6732C39.9337 43.7043 40.0871 43.6986 40.2323 43.6566C40.3775 43.6146 40.5102 43.5375 40.6186 43.4322C41.6862 42.3947 42.9655 41.6002 44.3689 41.1032C49.3793 39.3159 55.051 41.6788 57.281 46.4829C57.8758 47.7485 58.2041 49.1228 58.2455 50.5205C58.287 51.9182 58.0407 53.3095 57.5219 54.6081ZM45.9159 46.0182C45.2832 46.2719 44.7067 46.6479 44.2195 47.1248C43.7323 47.6016 43.3439 48.1699 43.0767 48.797C42.8095 49.4242 42.6686 50.0979 42.6621 50.7796C42.6557 51.4613 42.7838 52.1375 43.0391 52.7696C43.5607 54.0451 44.5659 55.0623 45.8351 55.599C47.1044 56.1356 48.5344 56.1481 49.8128 55.6337C50.4456 55.38 51.0221 55.0039 51.5093 54.5271C51.9964 54.0503 52.3848 53.482 52.652 52.8548C52.9193 52.2277 53.0601 51.554 53.0666 50.8723C53.0731 50.1906 52.945 49.5143 52.6896 48.8822C52.1674 47.6073 51.1621 46.5906 49.8931 46.0541C48.6241 45.5175 47.1944 45.5046 45.9159 46.0182ZM50.9575 52.123C50.7863 52.5293 50.5361 52.8975 50.2214 53.2063C49.9066 53.515 49.5336 53.7581 49.1241 53.9214C48.2989 54.2535 47.3758 54.2458 46.5562 53.9C45.7366 53.5541 45.087 52.8982 44.7492 52.0753C44.5852 51.6682 44.5032 51.2328 44.5077 50.794C44.5123 50.3552 44.6033 49.9216 44.7757 49.518C44.948 49.1145 45.1983 48.7488 45.5121 48.4421C45.826 48.1354 46.1972 47.8936 46.6046 47.7305C47.4298 47.3982 48.353 47.4059 49.1726 47.7517C49.9922 48.0976 50.6418 48.7536 50.9795 49.5766C51.1448 49.9813 51.2279 50.4149 51.2241 50.852C51.2203 51.2892 51.1297 51.7212 50.9574 52.123H50.9575ZM32.5651 32.9288C32.3826 32.9288 32.2041 32.9829 32.0524 33.0843C31.9006 33.1858 31.7823 33.3299 31.7125 33.4985C31.6426 33.6671 31.6244 33.8527 31.66 34.0317C31.6956 34.2107 31.7835 34.3752 31.9125 34.5042C32.0416 34.6333 32.206 34.7212 32.385 34.7568C32.5641 34.7924 32.7496 34.7741 32.9182 34.7043C33.0869 34.6344 33.231 34.5161 33.3324 34.3644C33.4338 34.2126 33.4879 34.0342 33.4879 33.8517C33.4879 33.6069 33.3907 33.3722 33.2176 33.1991C33.0446 33.026 32.8098 32.9288 32.5651 32.9288ZM17.0842 46.0183C15.8057 45.5046 14.376 45.5175 13.107 46.054C11.838 46.5906 10.8327 47.6072 10.3105 48.8822C10.0551 49.5143 9.92703 50.1906 9.93347 50.8723C9.93992 51.554 10.0808 52.2277 10.348 52.8549C10.6153 53.4821 11.0036 54.0504 11.4908 54.5272C11.978 55.0041 12.5545 55.3801 13.1873 55.6338C14.4657 56.1481 15.8957 56.1356 17.1649 55.5989C18.4341 55.0622 19.4394 54.0451 19.961 52.7696C20.2163 52.1375 20.3444 51.4613 20.3379 50.7796C20.3315 50.0979 20.1906 49.4242 19.9233 48.7971C19.6561 48.17 19.2678 47.6017 18.7806 47.1249C18.2934 46.648 17.7169 46.272 17.0842 46.0183ZM18.2509 52.0753C17.9132 52.8983 17.2636 53.5543 16.444 53.9002C15.6244 54.246 14.7012 54.2536 13.876 53.9212C13.4686 53.7582 13.0974 53.5165 12.7835 53.2097C12.4697 52.903 12.2195 52.5374 12.0471 52.1338C11.8748 51.7302 11.7837 51.2966 11.7792 50.8578C11.7746 50.419 11.8566 49.9836 12.0206 49.5766C12.3584 48.7537 13.008 48.0978 13.8276 47.752C14.6472 47.4062 15.5703 47.3985 16.3955 47.7306C16.8029 47.8937 17.1742 48.1355 17.488 48.4422C17.8018 48.749 18.0521 49.1146 18.2244 49.5182C18.3968 49.9217 18.4878 50.3553 18.4924 50.7941C18.4969 51.233 18.4149 51.6683 18.2509 52.0754V52.0753Z" fill="black"/>
</g>
<defs>
<clipPath id="clip0_1_50">
<rect width="63" height="63" fill="white"/>
</clipPath>
</defs>
</svg>
