<svg width="39" height="39" viewBox="0 0 39 39" fill="none" xmlns="http://www.w3.org/2000/svg">
<g filter="url(#filter0_d_35_12)">
<mask id="mask0_35_12" style="mask-type:luminance" maskUnits="userSpaceOnUse" x="0" y="0" width="39" height="39">
<path d="M39 0H0V39H39V0Z" fill="white"/>
</mask>
<g mask="url(#mask0_35_12)">
<path fill-rule="evenodd" clip-rule="evenodd" d="M22.2313 37.5479C20.7572 37.8324 18.5293 37.8647 17.0101 37.6015C16.636 37.5369 16.2472 37.1889 16.1412 36.8245L15.1558 33.434C15.0498 33.0696 14.6976 32.6198 14.3691 32.4303L10.7988 30.3694C10.4703 30.1799 9.90605 30.1056 9.53982 30.2037L6.17668 31.1049C5.81044 31.203 5.31441 31.047 5.07005 30.7576C4.13039 29.6449 3.06277 27.7912 2.57344 26.4621C2.44243 26.1062 2.54907 25.5956 2.8111 25.3214L5.34 22.6846C5.60203 22.411 5.81532 21.8808 5.81532 21.5012V17.3788C5.81532 16.9997 5.59777 16.4738 5.32964 16.2057L2.80866 13.6853C2.54053 13.4172 2.42963 12.9108 2.56064 12.555C2.67764 12.2375 3.11883 11.2917 3.64899 10.374C4.19072 9.43618 4.80314 8.56416 5.03471 8.28811C5.27785 7.99744 5.77449 7.83474 6.14316 7.92554L9.74091 8.80913C10.109 8.89932 10.6751 8.81888 11.0035 8.62936L14.5733 6.56785C14.9017 6.37833 15.2484 5.92679 15.3466 5.56055L16.2557 2.16694C16.3538 1.80071 16.7371 1.45215 17.1113 1.38877C18.4854 1.15721 20.6018 1.15904 22.0125 1.41254C22.3854 1.47957 22.7681 1.83118 22.8662 2.19741L23.7675 5.56055C23.8656 5.92679 24.2123 6.37833 24.5402 6.56785L28.1105 8.62936C28.439 8.81888 29.0033 8.89322 29.3695 8.79511L32.7326 7.89385C33.0989 7.79574 33.5949 7.95113 33.8393 8.24058C34.8191 9.40083 35.9087 11.3161 36.4053 12.7067C36.5327 13.0644 36.4187 13.572 36.1506 13.8401L33.7844 16.2057C33.5163 16.4738 33.2987 16.9997 33.2987 17.3788V21.5012C33.2987 21.8808 33.5163 22.4061 33.7844 22.6742L36.186 25.0758C36.4541 25.3439 36.5693 25.8521 36.4431 26.2098C36.3036 26.6059 35.8337 27.6309 35.2603 28.6248C34.7186 29.5626 34.1062 30.4346 33.8746 30.7113C33.6308 31.0013 33.1354 31.158 32.7692 31.0598L29.5742 30.2037C29.2074 30.1056 28.6437 30.1799 28.3153 30.3694L24.7449 32.4303C24.4165 32.6198 24.0704 33.0714 23.9723 33.4376L23.0838 36.7538C22.9857 37.1201 22.6036 37.476 22.2313 37.5479ZM11.2528 19.4994C11.2528 14.9486 14.9468 11.2539 19.4976 11.2539C24.0478 11.2539 27.7425 14.9486 27.7425 19.4994C27.7425 24.0496 24.0478 27.7442 19.4976 27.7442C14.9468 27.7442 11.2528 24.0496 11.2528 19.4994Z" fill="#D8A353"/>
</g>
</g>
<defs>
<filter id="filter0_d_35_12" x="-1.49438" y="1.21863" width="41.9886" height="44.5627" filterUnits="userSpaceOnUse" color-interpolation-filters="sRGB">
<feFlood flood-opacity="0" result="BackgroundImageFix"/>
<feColorMatrix in="SourceAlpha" type="matrix" values="0 0 0 0 0 0 0 0 0 0 0 0 0 0 0 0 0 0 127 0" result="hardAlpha"/>
<feOffset dy="4"/>
<feGaussianBlur stdDeviation="2"/>
<feComposite in2="hardAlpha" operator="out"/>
<feColorMatrix type="matrix" values="0 0 0 0 0 0 0 0 0 0 0 0 0 0 0 0 0 0 0.25 0"/>
<feBlend mode="normal" in2="BackgroundImageFix" result="effect1_dropShadow_35_12"/>
<feBlend mode="normal" in="SourceGraphic" in2="effect1_dropShadow_35_12" result="shape"/>
</filter>
</defs>
</svg>
